{
	"asset":{
		"generator":"Khronos glTF Blender I/O v3.5.30",
		"version":"2.0"
	},
	"extensionsUsed":[
		"KHR_materials_specular",
		"KHR_materials_ior"
	],
	"scene":0,
	"scenes":[
		{
			"name":"Scene",
			"nodes":[
				0,
				1
			]
		}
	],
	"nodes":[
		{
			"mesh":0,
			"name":"Tower",
			"scale":[
				3.0816123485565186,
				3.0816123485565186,
				3.0816123485565186
			],
			"translation":[
				0,
				3.1083922386169434,
				0
			]
		},
		{
			"mesh":1,
			"name":"Flag",
			"rotation":[
				0,
				0,
				0.7071068286895752,
				0.7071068286895752
			],
			"scale":[
				0.6441262364387512,
				0.6441262364387512,
				0.6441262364387512
			],
			"translation":[
				-0.1812835931777954,
				12.652417182922363,
				0.7117311358451843
			]
		}
	],
	"materials":[
		{
			"doubleSided":true,
			"name":"Stones",
			"pbrMetallicRoughness":{
				"baseColorFactor":[
					0.038978636264801025,
					0.0397910438477993,
					0.040844909846782684,
					1
				],
				"metallicFactor":0,
				"roughnessFactor":0.8006535768508911
			}
		},
		{
			"doubleSided":true,
			"name":"Base",
			"pbrMetallicRoughness":{
				"baseColorFactor":[
					0.008284186944365501,
					0.005964566487818956,
					0.043136633932590485,
					1
				],
				"metallicFactor":0,
				"roughnessFactor":0.5
			}
		},
		{
			"doubleSided":true,
			"extensions":{
				"KHR_materials_specular":{
					"specularColorFactor":[
						1.2476750810271688,
						1.2476750810271688,
						1.2476750810271688
					]
				},
				"KHR_materials_ior":{
					"ior":1.4500000476837158
				}
			},
			"name":"Stick",
			"pbrMetallicRoughness":{
				"baseColorFactor":[
					0.1652851551771164,
					0.04202447086572647,
					0.011832309886813164,
					1
				],
				"metallicFactor":0,
				"roughnessFactor":0.5392156839370728
			}
		},
		{
			"doubleSided":true,
			"name":"Point",
			"pbrMetallicRoughness":{
				"baseColorFactor":[
					0.03853567689657211,
					0.03853567689657211,
					0.03853567689657211,
					1
				],
				"metallicFactor":0.8888888955116272,
				"roughnessFactor":0.5
			}
		},
		{
			"doubleSided":true,
			"name":"Flag",
			"pbrMetallicRoughness":{
				"baseColorFactor":[
					0.026011401787400246,
					0.1131497472524643,
					0.8000000715255737,
					1
				],
				"metallicFactor":0,
				"roughnessFactor":0.5
			}
		}
	],
	"meshes":[
		{
			"name":"Cylinder.001",
			"primitives":[
				{
					"attributes":{
						"POSITION":0,
						"TEXCOORD_0":1,
						"NORMAL":2
					},
					"indices":3,
					"material":0
				},
				{
					"attributes":{
						"POSITION":4,
						"TEXCOORD_0":5,
						"NORMAL":6
					},
					"indices":7,
					"material":1
				},
				{
					"attributes":{
						"POSITION":8,
						"TEXCOORD_0":9,
						"NORMAL":10
					},
					"indices":11,
					"material":2
				},
				{
					"attributes":{
						"POSITION":12,
						"TEXCOORD_0":13,
						"NORMAL":14
					},
					"indices":15,
					"material":3
				}
			]
		},
		{
			"name":"Plane",
			"primitives":[
				{
					"attributes":{
						"POSITION":16,
						"TEXCOORD_0":17,
						"NORMAL":18
					},
					"indices":19,
					"material":4
				}
			]
		}
	],
	"accessors":[
		{
			"bufferView":0,
			"componentType":5126,
			"count":396,
			"max":[
				1.4000000953674316,
				2.495572566986084,
				1.4000000953674316
			],
			"min":[
				-1.4000000953674316,
				-1.0294060707092285,
				-1.4000000953674316
			],
			"type":"VEC3"
		},
		{
			"bufferView":1,
			"componentType":5126,
			"count":396,
			"type":"VEC2"
		},
		{
			"bufferView":2,
			"componentType":5126,
			"count":396,
			"type":"VEC3"
		},
		{
			"bufferView":3,
			"componentType":5123,
			"count":750,
			"type":"SCALAR"
		},
		{
			"bufferView":4,
			"componentType":5126,
			"count":148,
			"max":[
				1.4000000953674316,
				-0.37707626819610596,
				1.4000000953674316
			],
			"min":[
				-1.4000000953674316,
				-1.0294060707092285,
				-1.4000000953674316
			],
			"type":"VEC3"
		},
		{
			"bufferView":5,
			"componentType":5126,
			"count":148,
			"type":"VEC2"
		},
		{
			"bufferView":6,
			"componentType":5126,
			"count":148,
			"type":"VEC3"
		},
		{
			"bufferView":7,
			"componentType":5123,
			"count":288,
			"type":"SCALAR"
		},
		{
			"bufferView":8,
			"componentType":5126,
			"count":48,
			"max":[
				0.0346454381942749,
				3.3137919902801514,
				0.0346454381942749
			],
			"min":[
				-0.0346454381942749,
				2.0881431102752686,
				-0.0346454381942749
			],
			"type":"VEC3"
		},
		{
			"bufferView":9,
			"componentType":5126,
			"count":48,
			"type":"VEC2"
		},
		{
			"bufferView":10,
			"componentType":5126,
			"count":48,
			"type":"VEC3"
		},
		{
			"bufferView":11,
			"componentType":5123,
			"count":72,
			"type":"SCALAR"
		},
		{
			"bufferView":12,
			"componentType":5126,
			"count":84,
			"max":[
				0.031427785754203796,
				3.418299436569214,
				0.0346454381942749
			],
			"min":[
				-0.0314304381608963,
				3.3137919902801514,
				-0.0346454381942749
			],
			"type":"VEC3"
		},
		{
			"bufferView":13,
			"componentType":5126,
			"count":84,
			"type":"VEC2"
		},
		{
			"bufferView":14,
			"componentType":5126,
			"count":84,
			"type":"VEC3"
		},
		{
			"bufferView":15,
			"componentType":5123,
			"count":108,
			"type":"SCALAR"
		},
		{
			"bufferView":16,
			"componentType":5126,
			"count":1014,
			"max":[
				1,
				0.2551291584968567,
				2.387056350708008
			],
			"min":[
				-0.9999999403953552,
				-0.343437522649765,
				-1
			],
			"type":"VEC3"
		},
		{
			"bufferView":17,
			"componentType":5126,
			"count":1014,
			"type":"VEC2"
		},
		{
			"bufferView":18,
			"componentType":5126,
			"count":1014,
			"type":"VEC3"
		},
		{
			"bufferView":19,
			"componentType":5123,
			"count":5676,
			"type":"SCALAR"
		}
	],
	"bufferViews":[
		{
			"buffer":0,
			"byteLength":4752,
			"byteOffset":0,
			"target":34962
		},
		{
			"buffer":0,
			"byteLength":3168,
			"byteOffset":4752,
			"target":34962
		},
		{
			"buffer":0,
			"byteLength":4752,
			"byteOffset":7920,
			"target":34962
		},
		{
			"buffer":0,
			"byteLength":1500,
			"byteOffset":12672,
			"target":34963
		},
		{
			"buffer":0,
			"byteLength":1776,
			"byteOffset":14172,
			"target":34962
		},
		{
			"buffer":0,
			"byteLength":1184,
			"byteOffset":15948,
			"target":34962
		},
		{
			"buffer":0,
			"byteLength":1776,
			"byteOffset":17132,
			"target":34962
		},
		{
			"buffer":0,
			"byteLength":576,
			"byteOffset":18908,
			"target":34963
		},
		{
			"buffer":0,
			"byteLength":576,
			"byteOffset":19484,
			"target":34962
		},
		{
			"buffer":0,
			"byteLength":384,
			"byteOffset":20060,
			"target":34962
		},
		{
			"buffer":0,
			"byteLength":576,
			"byteOffset":20444,
			"target":34962
		},
		{
			"buffer":0,
			"byteLength":144,
			"byteOffset":21020,
			"target":34963
		},
		{
			"buffer":0,
			"byteLength":1008,
			"byteOffset":21164,
			"target":34962
		},
		{
			"buffer":0,
			"byteLength":672,
			"byteOffset":22172,
			"target":34962
		},
		{
			"buffer":0,
			"byteLength":1008,
			"byteOffset":22844,
			"target":34962
		},
		{
			"buffer":0,
			"byteLength":216,
			"byteOffset":23852,
			"target":34963
		},
		{
			"buffer":0,
			"byteLength":12168,
			"byteOffset":24068,
			"target":34962
		},
		{
			"buffer":0,
			"byteLength":8112,
			"byteOffset":36236,
			"target":34962
		},
		{
			"buffer":0,
			"byteLength":12168,
			"byteOffset":44348,
			"target":34962
		},
		{
			"buffer":0,
			"byteLength":11352,
			"byteOffset":56516,
			"target":34963
		}
	],
	"buffers":[
		{
			"byteLength":67868,
			"uri":"tower.bin"
		}
	]
}
